<svg width="126" height="62" viewBox="0 0 126 62" fill="none" xmlns="http://www.w3.org/2000/svg">
<path d="M5.64794 35.6572C7.14221 35.5852 11.3725 32.8705 18.2572 23.9929C18.3409 23.9008 18.4246 23.8087 18.5564 23.8023C18.9959 23.7811 19.5884 24.1931 19.6117 24.6765C19.6159 24.7644 19.5741 24.8105 19.5344 24.9005C14.4256 32.2389 9.57102 37.5386 5.8793 37.7165C5.08822 37.7546 3.19155 36.7888 3.06238 34.1079C2.94805 31.7346 3.87314 28.0779 4.59807 25.7523C6.16283 20.7432 9.86426 7.96625 12.8153 4.29999C13.6455 3.24682 14.5679 2.27731 16.0622 2.20532C17.6004 2.13121 18.8506 3.39251 18.9247 4.93072C19.1025 8.62244 13.5013 18.5395 7.36898 25.6628C6.60645 28.1224 5.28209 32.6353 5.40702 35.2283C5.42396 35.5799 5.51609 35.6636 5.64794 35.6572ZM8.8649 21.0535C12.8569 15.2226 17.0825 7.83875 16.9173 4.41072C16.9046 4.14703 16.8146 4.10731 16.6828 4.11366C14.0919 4.28254 10.229 16.4505 8.8649 21.0535Z" fill="#40372C"/>
<path d="M23.3002 20.9748C26.1129 20.8392 28.4327 22.3574 28.5047 23.8516C28.5216 24.2032 28.3125 24.4336 27.9169 24.4526C26.5545 24.5183 27.1772 22.8143 24.4524 22.9456C21.1562 23.1044 17.9987 27.97 18.1871 31.8814C19.3738 31.8243 23.3976 26.6526 24.7589 24.7369C24.8823 24.5548 25.056 24.5023 25.2757 24.4918C25.9789 24.4579 27.1221 25.3279 26.8965 26.1317C26.4411 27.6513 25.9815 29.0831 26.0599 30.7092C26.0704 30.929 26.1626 31.0126 26.3384 31.0042C28.8456 30.9274 33.7965 25.7992 36.1767 23.0855C36.2604 22.9934 36.3461 22.9452 36.434 22.941C36.8735 22.9198 37.466 23.3318 37.4872 23.7713C37.4915 23.8592 37.4517 23.9492 37.412 24.0392C35.645 26.6793 30.477 32.7871 27.0929 32.9501C25.291 33.0369 24.2187 31.8111 23.8725 30.1098C22.7515 31.5294 20.9321 33.9958 19.0423 34.0868C17.0646 34.1821 15.923 32.431 15.8362 30.6291C15.6519 26.8056 19.169 21.1738 23.3002 20.9748Z" fill="#40372C"/>
<path d="M42.9 4.6C42.9 2.65 42.4 1.55 41 1.25V1H52.9C72 1 72.1 36 52.9 36H41V35.75C42.4 35.45 42.9 34.35 42.9 32.4V4.6ZM51.4 35.5C67.5 35.5 68.1 1.5 51.4 1.5H48.3C46.85 1.5 46.4 2.65 46.4 4.6V32.4C46.4 34.35 46.85 35.5 48.3 35.5H51.4Z" fill="#40372C"/>
<path d="M73.9469 9.25C71.0469 9.25 71.0469 5.05 73.9469 5.05C76.7469 5.05 76.7469 9.25 73.9469 9.25ZM72.1969 15.15C72.1969 13.8 71.8969 13.8 71.3969 13.8V13.55C72.6969 13.45 74.7469 12.45 75.4469 11H75.6969V32.4C75.6969 34.35 76.1969 35.45 77.5969 35.75V36H70.2969V35.75C71.6969 35.45 72.1969 34.35 72.1969 32.4V15.15Z" fill="#40372C"/>
<path d="M101.3 14.6L92.3496 36L83.2996 14.6C82.3996 12.45 82.1996 11.55 80.5996 11.25V11H87.3496V11.25C86.1496 11.55 86.2496 12.4 87.1496 14.6L93.9496 30.8L100.8 14.4C101.7 12.2 101.5 11.55 100.3 11.25V11H104.15V11.25C102.55 11.55 102.2 12.45 101.3 14.6Z" fill="#40372C"/>
<path d="M119.872 31.15V29.3C118.272 33.6 114.122 36.65 109.472 36C102.272 35 101.422 26.55 109.272 23.5C114.172 21.55 119.572 21.1 119.822 16.2C119.972 12.85 117.872 11.05 115.422 11.05C113.472 11.05 111.272 12.2 109.822 14.6C109.372 15.3 108.822 15.6 108.372 15.6C107.522 15.6 106.922 14.75 107.322 13.9C108.272 11.95 111.472 10.5 114.772 10.5C118.972 10.5 123.372 12.9 123.372 19.6V32.4C123.372 34.35 123.872 35.45 125.272 35.75V36H117.972V35.75C119.372 35.45 119.872 33.45 119.872 31.15ZM119.872 26.45V18.35C118.122 22.1 113.272 22.05 109.822 24.5C106.372 26.95 105.972 33.8 110.972 34.9C115.872 36 119.872 30.4 119.872 26.45Z" fill="#40372C"/>
<path d="M42.9 4.6C42.9 2.65 42.4 1.55 41 1.25V1H52.9C72 1 72.1 36 52.9 36H41V35.75C42.4 35.45 42.9 34.35 42.9 32.4V4.6ZM51.4 35.5C67.5 35.5 68.1 1.5 51.4 1.5H48.3C46.85 1.5 46.4 2.65 46.4 4.6V32.4C46.4 34.35 46.85 35.5 48.3 35.5H51.4Z" stroke="#40372C" stroke-linejoin="bevel"/>
<path d="M73.9469 9.25C71.0469 9.25 71.0469 5.05 73.9469 5.05C76.7469 5.05 76.7469 9.25 73.9469 9.25ZM72.1969 15.15C72.1969 13.8 71.8969 13.8 71.3969 13.8V13.55C72.6969 13.45 74.7469 12.45 75.4469 11H75.6969V32.4C75.6969 34.35 76.1969 35.45 77.5969 35.75V36H70.2969V35.75C71.6969 35.45 72.1969 34.35 72.1969 32.4V15.15Z" stroke="#40372C" stroke-linejoin="bevel"/>
<path d="M101.3 14.6L92.3496 36L83.2996 14.6C82.3996 12.45 82.1996 11.55 80.5996 11.25V11H87.3496V11.25C86.1496 11.55 86.2496 12.4 87.1496 14.6L93.9496 30.8L100.8 14.4C101.7 12.2 101.5 11.55 100.3 11.25V11H104.15V11.25C102.55 11.55 102.2 12.45 101.3 14.6Z" stroke="#40372C" stroke-linejoin="bevel"/>
<path d="M119.872 31.15V29.3C118.272 33.6 114.122 36.65 109.472 36C102.272 35 101.422 26.55 109.272 23.5C114.172 21.55 119.572 21.1 119.822 16.2C119.972 12.85 117.872 11.05 115.422 11.05C113.472 11.05 111.272 12.2 109.822 14.6C109.372 15.3 108.822 15.6 108.372 15.6C107.522 15.6 106.922 14.75 107.322 13.9C108.272 11.95 111.472 10.5 114.772 10.5C118.972 10.5 123.372 12.9 123.372 19.6V32.4C123.372 34.35 123.872 35.45 125.272 35.75V36H117.972V35.75C119.372 35.45 119.872 33.45 119.872 31.15ZM119.872 26.45V18.35C118.122 22.1 113.272 22.05 109.822 24.5C106.372 26.95 105.972 33.8 110.972 34.9C115.872 36 119.872 30.4 119.872 26.45Z" stroke="#40372C" stroke-linejoin="bevel"/>
<path d="M14.8301 58V51H17.1401C17.6201 51 18.0334 51.0733 18.3801 51.22C18.7334 51.3667 19.0067 51.5867 19.2001 51.88C19.3934 52.1667 19.4901 52.5267 19.4901 52.96C19.4901 53.26 19.4167 53.53 19.2701 53.77C19.1301 54.01 18.9301 54.21 18.6701 54.37C19.0101 54.5367 19.2701 54.76 19.4501 55.04C19.6301 55.32 19.7201 55.6533 19.7201 56.04C19.7201 56.4533 19.6267 56.8067 19.4401 57.1C19.2534 57.3933 18.9901 57.6167 18.6501 57.77C18.3101 57.9233 17.9067 58 17.4401 58H14.8301ZM15.9701 56.96H17.3501C17.7167 56.96 18.0067 56.87 18.2201 56.69C18.4334 56.51 18.5401 56.2667 18.5401 55.96C18.5401 55.6267 18.4201 55.3667 18.1801 55.18C17.9467 54.9933 17.6167 54.9 17.1901 54.9H15.9701V56.96ZM15.9701 53.94H17.2401C17.5734 53.94 17.8334 53.8533 18.0201 53.68C18.2134 53.5 18.3101 53.2533 18.3101 52.94C18.3101 52.62 18.2001 52.3767 17.9801 52.21C17.7667 52.0367 17.4667 51.95 17.0801 51.95H15.9701V53.94Z" fill="#40372C"/>
<path d="M22.9531 58V51H27.2631V52.06H24.1131V53.92H26.8931V54.96H24.1131V56.94H27.2931V58H22.9531Z" fill="#40372C"/>
<path d="M35.7016 58L32.9716 51H34.1316L36.9316 58H35.7016ZM30.1116 58L32.9016 51H34.0716L31.3416 58H30.1116ZM31.4216 56.28V55.25H35.6116V56.28H31.4216Z" fill="#40372C"/>
<path d="M42.5138 58.14C41.9604 58.14 41.4738 58.03 41.0538 57.81C40.6404 57.5833 40.3171 57.2667 40.0837 56.86C39.8571 56.4533 39.7437 55.98 39.7437 55.44V51H40.9037V55.44C40.9037 55.7667 40.9704 56.0533 41.1038 56.3C41.2438 56.54 41.4371 56.73 41.6838 56.87C41.9304 57.0033 42.2138 57.07 42.5338 57.07C42.8604 57.07 43.1471 57.0033 43.3937 56.87C43.6471 56.73 43.8404 56.54 43.9738 56.3C44.1071 56.0533 44.1737 55.7667 44.1737 55.44V51H45.3337V55.44C45.3337 55.98 45.2171 56.4533 44.9837 56.86C44.7571 57.2667 44.4304 57.5833 44.0037 57.81C43.5837 58.03 43.0871 58.14 42.5138 58.14Z" fill="#40372C"/>
<path d="M50.1883 58V52.06H48.0383V51H53.4983V52.06H51.3483V58H50.1883Z" fill="#40372C"/>
<path d="M59.3309 55.1L58.2609 54.76L60.5209 51H61.8509L59.3309 55.1ZM58.2009 58V54.64H59.3609V58H58.2009ZM58.2309 55.1L55.7109 51H57.0409L59.3009 54.76L58.2309 55.1Z" fill="#40372C"/>
<path d="M71.4719 58.12C71.1052 58.12 70.7685 58.0767 70.4619 57.99C70.1619 57.9033 69.8952 57.7833 69.6619 57.63C69.4352 57.4767 69.2452 57.3067 69.0919 57.12C68.9452 56.9267 68.8419 56.7267 68.7819 56.52L69.9219 56.17C70.0085 56.4167 70.1785 56.6333 70.4319 56.82C70.6852 57.0067 70.9985 57.1033 71.3719 57.11C71.8052 57.11 72.1485 57.02 72.4019 56.84C72.6552 56.66 72.7819 56.4233 72.7819 56.13C72.7819 55.8633 72.6752 55.6467 72.4619 55.48C72.2485 55.3067 71.9619 55.1733 71.6019 55.08L70.7419 54.86C70.4152 54.7733 70.1185 54.6467 69.8519 54.48C69.5919 54.3133 69.3852 54.1033 69.2319 53.85C69.0852 53.5967 69.0119 53.2967 69.0119 52.95C69.0119 52.2967 69.2252 51.79 69.6519 51.43C70.0785 51.0633 70.6885 50.88 71.4819 50.88C71.9285 50.88 72.3185 50.95 72.6519 51.09C72.9919 51.2233 73.2719 51.41 73.4919 51.65C73.7119 51.8833 73.8752 52.15 73.9819 52.45L72.8619 52.81C72.7619 52.5433 72.5885 52.3233 72.3419 52.15C72.0952 51.9767 71.7885 51.89 71.4219 51.89C71.0419 51.89 70.7419 51.98 70.5219 52.16C70.3085 52.34 70.2019 52.59 70.2019 52.91C70.2019 53.17 70.2852 53.3733 70.4519 53.52C70.6252 53.66 70.8585 53.7667 71.1519 53.84L72.0119 54.05C72.6385 54.2033 73.1252 54.4667 73.4719 54.84C73.8185 55.2133 73.9919 55.6267 73.9919 56.08C73.9919 56.48 73.8952 56.8333 73.7019 57.14C73.5085 57.4467 73.2219 57.6867 72.8419 57.86C72.4685 58.0333 72.0119 58.12 71.4719 58.12Z" fill="#40372C"/>
<path d="M82.1254 58L79.3954 51H80.5554L83.3554 58H82.1254ZM76.5354 58L79.3254 51H80.4954L77.7654 58H76.5354ZM77.8454 56.28V55.25H82.0354V56.28H77.8454Z" fill="#40372C"/>
<path d="M86.2676 58V51H87.4276V56.94H90.5976V58H86.2676Z" fill="#40372C"/>
<path d="M96.5241 58.12C95.8307 58.12 95.2174 57.9667 94.6841 57.66C94.1507 57.3533 93.7307 56.9267 93.4241 56.38C93.1241 55.8333 92.9741 55.2067 92.9741 54.5C92.9741 53.7933 93.1241 53.17 93.4241 52.63C93.7307 52.0833 94.1474 51.6567 94.6741 51.35C95.2007 51.0367 95.8074 50.88 96.4941 50.88C97.1874 50.88 97.7974 51.0367 98.3241 51.35C98.8574 51.6567 99.2707 52.0833 99.5641 52.63C99.8641 53.17 100.014 53.7933 100.014 54.5C100.014 55.2067 99.8641 55.8333 99.5641 56.38C99.2707 56.9267 98.8607 57.3533 98.3341 57.66C97.8141 57.9667 97.2107 58.12 96.5241 58.12ZM96.5241 57.06C96.9774 57.06 97.3774 56.95 97.7241 56.73C98.0707 56.51 98.3407 56.21 98.5341 55.83C98.7341 55.4433 98.8341 55 98.8341 54.5C98.8341 54.0067 98.7341 53.5667 98.5341 53.18C98.3341 52.7933 98.0574 52.4933 97.7041 52.28C97.3574 52.06 96.9541 51.95 96.4941 51.95C96.0407 51.95 95.6374 52.06 95.2841 52.28C94.9374 52.4933 94.6607 52.7933 94.4541 53.18C94.2541 53.56 94.1541 54 94.1541 54.5C94.1541 55 94.2541 55.4433 94.4541 55.83C94.6607 56.21 94.9407 56.51 95.2941 56.73C95.6541 56.95 96.0641 57.06 96.5241 57.06Z" fill="#40372C"/>
<path d="M103.246 58V51H104.446L108.166 56.06V51H109.326V58H108.166L104.406 52.88V58H103.246Z" fill="#40372C"/>
</svg>
